<svg xmlns="http://www.w3.org/2000/svg" width="600" height="400" viewBox="0 0 600 400"><rect width="100%" height="100%" fill="#e2e8f0"/><path fill="#64748b" d="M163.9 163.045h9.83v60.01h-5.72q-1.33 0-2.22-.44-.9-.43-1.73-1.47l-31.33-40q.25 2.73.25 5.06v36.85h-9.83v-60.01H129q.7 0 1.22.06.52.07.91.25.4.19.77.54.38.35.83.94l31.46 40.17q-.13-1.46-.21-2.87t-.08-2.61zm29.67 33.82h19.34q0-1.99-.56-3.75-.56-1.77-1.68-3.09-1.12-1.33-2.84-2.1-1.73-.77-4.01-.77-4.44 0-6.99 2.53-2.55 2.54-3.26 7.18m26.15 6.19h-26.36q.25 3.28 1.17 5.66.91 2.39 2.4 3.94 1.5 1.56 3.55 2.33 2.06.77 4.55.77t4.29-.59q1.81-.58 3.15-1.28 1.35-.71 2.37-1.29t1.97-.58q1.29 0 1.91.96l2.95 3.73q-1.7 1.99-3.82 3.34t-4.42 2.16-4.69 1.14-4.63.33q-4.44 0-8.26-1.47-3.81-1.47-6.64-4.36-2.82-2.88-4.44-7.14-1.62-4.25-1.62-9.85 0-4.36 1.42-8.2 1.41-3.84 4.04-6.68 2.64-2.84 6.43-4.5 3.8-1.66 8.57-1.66 4.03 0 7.43 1.28 3.41 1.29 5.85 3.76 2.45 2.47 3.84 6.06t1.39 8.19q0 2.33-.49 3.14-.5.81-1.91.81m63.08-22.58h7.8l-13.53 42.58h-8.22q-1.41 0-1.95-1.83l-7.63-24.61q-.38-1.24-.69-2.46-.31-1.23-.52-2.47-.25 1.24-.56 2.51-.31 1.26-.68 2.51l-7.76 24.52q-.5 1.83-2.2 1.83h-7.89l-13.49-42.58h8.18q1.12 0 1.91.54t1.04 1.37l6.1 22.74q.45 1.87.81 3.65.35 1.79.6 3.57.45-1.78.97-3.57.52-1.78 1.1-3.65l7.06-22.82q.25-.83.97-1.37.73-.54 1.77-.54h4.52q1.08 0 1.85.54t1.01 1.37l6.85 22.82q.54 1.87 1.02 3.67.48 1.81.93 3.59.54-3.52 1.54-7.26l6.26-22.74q.29-.83 1.04-1.37t1.79-.54m41.91 4.61-2.32 3.69q-.42.66-.87.93-.46.27-1.17.27-.74 0-1.59-.41-.85-.42-1.98-.93-1.12-.52-2.55-.94-1.43-.41-3.38-.41-3.03 0-4.75 1.28-1.72 1.29-1.72 3.36 0 1.37.89 2.31.89.93 2.36 1.64 1.48.7 3.34 1.26 1.87.56 3.8 1.23 1.93.66 3.8 1.51t3.34 2.16 2.37 3.13q.89 1.83.89 4.4 0 3.07-1.1 5.67-1.1 2.59-3.26 4.48t-5.33 2.95q-3.18 1.05-7.33 1.05-2.2 0-4.29-.39-2.1-.39-4.03-1.1t-3.57-1.66-2.88-2.08l2.36-3.9q.46-.7 1.08-1.07.63-.38 1.58-.38t1.81.54q.85.54 1.97 1.16 1.12.63 2.63 1.16 1.52.54 3.84.54 1.83 0 3.13-.43 1.31-.44 2.16-1.14.85-.71 1.25-1.64.39-.94.39-1.93 0-1.5-.89-2.45t-2.37-1.66q-1.47-.71-3.36-1.27t-3.86-1.22-3.86-1.56q-1.89-.89-3.36-2.26t-2.36-3.36q-.9-1.99-.9-4.81 0-2.62 1.04-4.98 1.04-2.37 3.05-4.13 2.01-1.77 5.02-2.82 3.01-1.06 6.95-1.06 4.4 0 8.01 1.45t6.02 3.82m22.41 15.31h19.09l-7.3-19.96q-.54-1.33-1.12-3.15-.58-1.83-1.17-3.95-.53 2.12-1.12 3.97-.58 1.84-1.12 3.21zm15.23-37.35 23.57 60.01h-8.63q-1.45 0-2.36-.73-.92-.72-1.37-1.8l-4.48-12.24h-24.86l-4.49 12.24q-.33.95-1.28 1.74-.96.79-2.37.79h-8.71l23.61-60.01zm38.43 29.88v19.09q1.74 2.12 3.8 2.99 2.05.87 4.46.87 2.32 0 4.19-.87t3.18-2.66q1.3-1.78 2.01-4.5.7-2.72.7-6.41 0-3.74-.6-6.33t-1.72-4.21-2.72-2.37q-1.6-.74-3.63-.74-3.2 0-5.44 1.34-2.24 1.35-4.23 3.8m-1.37-10.58.83 3.94q2.62-2.95 5.94-4.77 3.32-1.83 7.8-1.83 3.48 0 6.37 1.46 2.88 1.45 4.98 4.21 2.09 2.76 3.24 6.8 1.14 4.05 1.14 9.28 0 4.77-1.29 8.84t-3.67 7.05q-2.39 2.99-5.77 4.67t-7.58 1.68q-3.56 0-6.1-1.1-2.53-1.1-4.52-3.05v17.43h-10.25v-56.48h6.27q1.99 0 2.61 1.87m48.51 10.58v19.09q1.75 2.12 3.8 2.99 2.06.87 4.46.87 2.33 0 4.19-.87 1.87-.87 3.18-2.66 1.31-1.78 2.01-4.5.71-2.72.71-6.41 0-3.74-.6-6.33-.61-2.59-1.73-4.21t-2.71-2.37q-1.6-.74-3.64-.74-3.19 0-5.43 1.34-2.24 1.35-4.24 3.8m-1.36-10.58.83 3.94q2.61-2.95 5.93-4.77 3.32-1.83 7.8-1.83 3.49 0 6.37 1.46 2.89 1.45 4.98 4.21 2.1 2.76 3.24 6.8 1.14 4.05 1.14 9.28 0 4.77-1.29 8.84-1.28 4.07-3.67 7.05-2.39 2.99-5.77 4.67t-7.57 1.68q-3.57 0-6.1-1.1t-4.53-3.05v17.43h-10.25v-56.48h6.27q1.99 0 2.62 1.87"/></svg>